<?xml version="1.0" encoding="UTF-8"?>
<svg id="Calque_1" xmlns="http://www.w3.org/2000/svg" xmlns:xlink="http://www.w3.org/1999/xlink" version="1.1" viewBox="0 0 389 70">
  <defs>
    <style>
      .st0 { fill: none; }
      .st1 { fill: #1f4bd5; }
      .st2 { clip-path: url(#clippath); }
    </style>
    <clipPath id="clippath">
      <rect class="st0" width="389" height="70"/>
    </clipPath>
  </defs>
  <g class="st2">
    <g>
      <path class="st1" d="M387.93 54.12c-.38 -.88 -1.71 -1.92 -2.6 -1.92 -5.68 -.01 -9.83 -2.47 -13.25 -5.96 -1.57 -1.6 -2.98 -3.41 -4.32 -5.31 -1.49 -2.1 -2.93 -4.22 -4.36 -6.36 -4.6 -6.87 -9.05 -13.86 -13.99 -20.47 -13.04 -17.42 -34.99 -18.9 -50.06 -3.37 -4.83 4.98 -8.75 10.87 -12.87 16.5 -1.35 1.84 -2.65 3.74 -3.93 5.64 -2.7 4.01 -5.32 8.06 -8.3 11.82 -.66 .84 -1.35 1.66 -2.06 2.47 -6.68 7.62 -15.36 7.6 -22.52 .49 -3.71 -3.69 -6.77 -8.06 -9.89 -12.3 -5.55 -7.54 -10.48 -15.58 -16.45 -22.76 -11.93 -14.35 -34.84 -16.61 -48.38 -.17 -3.52 4.27 -6.64 8.87 -9.78 13.43 -4.71 6.85 -8.74 14.27 -14.05 20.6 -7.99 9.52 -18.93 9.09 -26.79 -.45 -.07 -.09 -.15 -.18 -.22 -.26 -2.94 -3.66 -5.49 -7.65 -8.04 -11.61 -.31 -.48 -.62 -.96 -.93 -1.44 -6.06 -9.33 -12.04 -18.71 -21.36 -25.24 -12.34 -8.64 -28.17 -7.96 -38.74 2.58 -5.16 5.14 -9.09 11.59 -13.29 17.64 -1.63 2.36 -3.17 4.79 -4.69 7.22 -2.56 4.1 -5.1 8.21 -8 12.05 -.22 .29 -.42 .58 -.65 .86 -5.37 6.88 -12.06 7.67 -19.76 3.56 -3.85 -2.05 -5.76 -1.74 -7.34 2.28 -1.11 2.8 -1.32 6.1 -1.32 9.18 0 1.19 1.41 2.91 2.61 3.49 11.07 5.34 21.95 4.98 32.22 -2.02 4.11 -2.8 7.29 -6.43 10.08 -10.37 2.23 -3.15 4.22 -6.5 6.26 -9.81 .57 -.93 1.14 -1.87 1.7 -2.81 3.24 -5.42 6.34 -10.94 10.01 -16.05 6.29 -8.77 14.84 -10.01 23.24 -3.34 3.86 3.07 7.09 7.09 10.06 11.08 1.82 2.45 3.55 4.96 5.27 7.49 2.8 4.12 5.55 8.29 8.5 12.29 .72 .98 1.45 1.95 2.2 2.9 14.46 18.46 37.72 18.63 52.53 .58 2.92 -3.56 5.52 -7.42 8.04 -11.29 4.39 -6.75 8.12 -14.01 13.01 -20.36 7.11 -9.23 17.2 -9.65 25.22 -1.28 4.26 4.44 7.7 9.7 11.41 14.66 5.44 7.3 10.06 15.34 16.29 21.86 12.11 12.69 32.44 12.64 44.18 -.36 2.16 -2.4 4.2 -4.91 6.16 -7.5 2.98 -3.95 5.78 -8.07 8.53 -12.22 1.66 -2.5 3.3 -5.01 4.96 -7.5 3.7 -5.55 8.18 -9.98 13.84 -13.29 5.47 -3.19 10.95 -3.24 15.68 1.23 3.52 3.32 6.82 7 9.67 10.92 2.3 3.17 4.51 6.4 6.7 9.65 2.8 4.15 5.57 8.32 8.44 12.41 .26 .38 .52 .76 .79 1.13 6.09 8.61 14.39 13.42 25.26 14.35 1.22 -.57 2.93 -.8 3.57 -1.76 2.64 -3.94 3.46 -8.32 1.52 -12.82h-.01Z"/>
      <path class="st1" d="M75.55 41.38c-4.13 0 -8.11 -.5 -11.87 -1.41l-5.61 11.7c5.5 1.44 11.38 2.22 17.48 2.22 8.68 0 16.89 -1.57 24.24 -4.37l-7.9 -10.87c-5.01 1.75 -10.53 2.73 -16.34 2.73Z"/>
      <path class="st1" d="M321.85 41.38c-4.13 0 -8.11 -.5 -11.87 -1.41l-5.61 11.7c5.5 1.44 11.38 2.22 17.48 2.22 8.68 0 16.89 -1.57 24.24 -4.37l-7.9 -10.87c-5.01 1.75 -10.53 2.73 -16.35 2.73Z"/>
    </g>
  </g>
</svg>
